PathFileType	4	(X/Y/Z)	Patient4_TMGait_0pt6_01_right_18.trc.trc
DataRate	CameraRate	NumFrames	NumMarkers	Units	OrigDataRate	OrigDataStartFrame	OrigNumFrames
83.333333333333	83.333333333333	4	33	mm	83.333333333333	18	       141
Frame#	Time	Sacral			L.Shoulder			Chest			R.Shoulder			Neck			R.ASIS			L.ASIS			R.Thigh.Superior			R.Thigh.Lateral			R.Thigh.Inferior			R.Patella			L.Thigh.Superior			L.Thigh.Lateral			L.Thigh.Inferior			L.Patella			L.Shank.Superior			L.Shank.Lateral			L.Shank.Inferior			R.Shank.Superior			R.Shank.Lateral			R.Shank.Inferior			R.Heel			R.Midfoot.Superior			R.Midfoot.Lateral			R.Toe			L.Heel			L.Midfoot.Lateral			L.Midfoot.Superior			L.Toe			L.Elbow			L.Wrist			R.Elbow			R.Wrist			
		X1	Y1	Z1	X2	Y2	Z2	X3	Y3	Z3	X4	Y4	Z4	X5	Y5	Z5	X6	Y6	Z6	X7	Y7	Z7	X8	Y8	Z8	X9	Y9	Z9	X10	Y10	Z10	X11	Y11	Z11	X12	Y12	Z12	X13	Y13	Z13	X14	Y14	Z14	X15	Y15	Z15	X16	Y16	Z16	X17	Y17	Z17	X18	Y18	Z18	X19	Y19	Z19	X20	Y20	Z20	X21	Y21	Z21	X22	Y22	Z22	X23	Y23	Z23	X24	Y24	Z24	X25	Y25	Z25	X26	Y26	Z26	X27	Y27	Z27	X28	Y28	Z28	X29	Y29	Z29	X30	Y30	Z30	X31	Y31	Z31	X32	Y32	Z32	X33	Y33	Z33	

18	21.504000000000	629.013666245973	1003.712227986296	458.299210563144	815.340469274679	1438.516661825207	298.816886449257	905.823365000325	1365.721912530940	464.620679941427	807.612484694551	1431.243562807768	633.008507272316	779.680753758021	1491.720349649730	454.134112214910	850.445140884647	942.373032668768	589.225221666385	852.081390161569	960.097599388698	315.115568034616	930.317137630052	773.735258530712	557.626161970632	893.381588730055	652.054028183021	632.560791175256	980.381633532629	616.070682919485	550.239694232469	1017.355473574210	527.324179046227	569.679396294795	857.193041765265	729.021086059790	351.149210134419	747.126600376429	632.556913587068	282.307128615707	800.460326472395	541.085057607752	355.171127115949	783.996081173990	475.471000817893	366.239410243638	753.829791564439	408.105075151593	356.526918862622	657.832078198523	301.797884885400	301.406775435871	689.245205478914	188.957141603775	380.281636155324	990.227309759747	437.434355705730	579.638188213445	925.562029130989	331.068840700641	645.683779414928	981.074324359912	237.107720170170	591.990511057741	866.457618793431	57.988454300958	567.851348105756	1033.543343021331	120.709966714383	603.095626275425	952.114425017798	49.993520731606	640.225856299238	1156.593181045771	76.819107143930	627.936875823529	545.894365768958	38.888367303108	414.884197337549	623.408641895006	35.754105082189	338.192297753517	706.347013187107	95.405791298154	368.693669255023	835.169073396345	40.176988983266	345.614814806211	882.442710519293	1104.431836438532	154.517418110214	1136.791482942616	1066.345759966596	165.020420378717	657.273353184787	1117.411037734151	725.715532226347	616.933044271970	860.155819007866	737.109591724861	
19	21.516000000000	629.389709935997	1001.963099767007	459.505413528154	815.220925614641	1437.114892750593	300.760420174989	905.321178580827	1364.432739500461	466.783080869494	806.541975749452	1429.767222434240	634.907904986879	779.115421157442	1490.283501989217	455.965358860299	850.525937080084	940.828261159342	590.993707360474	852.867386583081	958.720331231774	316.870933933927	929.327764880558	770.896955338485	559.475961175752	891.055649477946	649.508151429470	634.150965805780	977.936065390124	613.137735312284	552.005304274939	1014.017218856536	525.091397530158	571.126713415314	856.046552314301	727.184602025129	352.505579543460	745.309086881067	631.543084342237	283.405914954401	797.621316197362	539.641553858099	356.320966815875	780.508418202274	473.987508477333	367.261556252165	749.710668481235	406.812956301724	357.394910615352	652.722979972210	301.490988039365	301.917499059180	682.866957888963	188.242344504991	380.624738632450	988.357137825300	435.009006875267	581.131927461869	925.113632923810	327.370499573020	646.454373748196	982.567651101747	234.535791576572	592.693789576787	871.225846514783	53.559203298195	567.373924009970	1037.092842719649	119.222804105282	604.091245178019	956.502969016590	47.080799920989	640.287263710627	1160.628182081081	77.234815427526	629.366894457681	538.596037531489	38.703683645361	414.899294367735	616.129616598178	35.664885543147	338.202787997318	699.039163140474	95.332605412459	368.779184206579	827.896126641618	40.127182484201	345.647542516797	883.256703099411	1103.543557552353	155.936717225735	1137.798933056036	1068.579325233491	167.301488064723	656.178301623748	1115.961514657689	727.385061059917	615.616897669048	858.885413164800	739.787293987181	
20	21.528000000000	630.045832926954	1000.106039222098	460.940316784465	814.895932778100	1435.664698414582	302.808493224280	904.790444778632	1363.202110325773	469.003759531275	805.472325656209	1428.238293911905	636.930231795276	778.452338390486	1488.820903758957	457.889830307784	850.889017723281	939.221062962904	592.881721499706	853.890003800177	957.322311221024	318.770449753274	928.862074217675	768.027582402601	561.620931829765	888.803757601474	646.759714452772	635.584598555903	975.947827154861	610.133836982488	554.013332084769	1010.644683450595	522.387112455432	572.616917561801	855.287815147705	725.303711613372	353.912041757644	743.817729537783	630.462640938598	284.695093326384	795.257527205196	538.127810253130	357.554403128388	777.520630338633	472.335741658582	368.403282120288	745.986155784914	405.395496445220	358.369053700923	647.847119337482	301.209151608019	302.521464928929	676.601276270143	187.486982608767	380.972303160222	985.937905921928	432.110562684825	582.490322238689	923.204312832855	323.698002825648	646.818246682493	981.947546231443	231.667576894973	593.040680914637	872.537165621541	50.049206399530	566.271404915757	1037.570223920657	117.237047711516	604.724722734001	957.172681087860	44.512194375356	639.878021649231	1161.103777268956	76.183184582881	630.634899007062	531.289782651810	38.521886496001	414.892190590659	608.864403396685	35.549739382950	338.212913075736	691.759742478344	95.254301825881	368.838701693054	820.667098814062	40.043975850820	345.657398357041	883.698560453373	1102.464156921826	157.551699945821	1138.343747274695	1069.843587468502	169.734586350870	655.946685287294	1113.952601022825	729.226772812185	615.871458058892	856.912149407484	742.489897112795	
21	21.540000000000	630.944294030265	998.191737505549	462.599552589859	814.396319568428	1434.189876656165	304.953833567426	904.258572732670	1362.052747517186	471.281589875422	804.426902375936	1426.687546196585	639.072235068991	777.728598709618	1487.363688464303	459.904943731481	851.516083361081	937.588727982583	594.897559267594	855.107435957200	955.926998806546	320.826716342031	928.907806793612	765.155824539864	564.076034287008	886.594642551759	643.856381261247	636.841680058650	974.379573156864	607.103449325994	556.224204736539	1007.283456387407	519.317587604050	574.064091134832	854.915713739870	723.413984682997	355.383680549698	742.671118528607	629.325915046598	286.189177025344	793.426482785263	536.554622585282	358.879743696692	775.116268490781	470.501967092015	369.659414297167	742.702388365724	403.854899723871	359.455101209222	643.234132435703	300.978840811302	303.232326177019	670.472945890943	186.712369623453	381.327043697421	983.083651095771	428.841315569991	583.650667295243	920.110840094797	320.067566104129	646.843126198745	979.516743316733	228.529405415054	593.039467153626	870.768364754331	47.318068269827	564.738405821635	1035.375871163239	114.791990456079	604.946611920256	954.616556033688	42.265076016276	639.129352210174	1158.550890333666	73.836942591926	631.632290269977	523.978642295482	38.391998082115	414.858788069744	601.616835181654	35.424060047350	338.222207007494	684.529255088097	95.171058405880	368.866487489127	813.488042135798	39.929000494085	345.640406288186	883.748989332374	1101.187819264174	159.378513261650	1138.428178444006	1070.147458372664	172.320667304470	656.540081614038	1111.453290027326	731.237438324219	617.679092854356	854.307608030349	745.219147315151	
